<svg version="1.1" id="Layer_1" xmlns="http://www.w3.org/2000/svg" xmlns:xlink="http://www.w3.org/1999/xlink" x="0px" y="0px"
	 width="100%" viewBox="0 0 128 91" enable-background="new 0 0 128 91" xml:space="preserve">
<path fill="#010101" opacity="1.000000" stroke="none" 
	d="
M112.000000,92.000000 
	C81.979103,92.000000 51.958210,92.000000 21.468006,91.531342 
	C20.998695,61.496559 20.998695,31.930431 20.998695,2.337319 
	C51.579758,2.337319 81.733582,2.337319 112.000000,2.337319 
	C112.000000,32.450657 112.000000,62.225327 112.000000,92.000000 
M48.578480,64.794556 
	C41.983402,67.057732 38.534500,72.751022 33.883652,77.133896 
	C34.389309,77.662933 34.894962,78.191971 35.400620,78.721008 
	C39.898766,73.841957 44.396908,68.962906 49.557400,64.071724 
	C53.971226,64.396851 55.241497,60.896145 57.667305,57.686436 
	C59.364471,59.137733 61.061642,60.589035 62.677261,61.970600 
	C65.569809,59.255684 68.207802,56.817780 70.801277,54.333397 
	C72.865768,52.355747 75.142746,50.516102 76.806404,48.236443 
	C77.749420,46.944263 77.647110,44.889225 78.796333,43.035664 
	C86.247070,41.512638 89.521942,34.751225 95.048256,30.727978 
	C93.514420,28.847992 92.302177,27.362167 91.914795,26.887367 
	C95.438896,23.470339 98.642006,20.364544 101.996758,17.111710 
	C103.099052,18.096285 104.765221,19.584509 106.496872,21.131224 
	C107.937653,18.215763 104.264503,13.528019 95.328598,6.356335 
	C94.878967,6.564218 94.429337,6.772101 93.979706,6.979985 
	C95.148300,9.047044 96.316895,11.114103 96.923492,12.187066 
	C94.125870,15.567414 91.546852,18.683640 88.664825,22.387447 
	C88.265129,22.554440 87.865425,22.721430 87.046967,22.248055 
	C86.185555,21.039717 85.324142,19.831377 83.859352,17.776672 
	C75.347000,26.574799 67.653290,34.526794 59.387531,42.894493 
	C56.642864,45.481930 53.898197,48.069366 51.361919,50.460354 
	C53.108559,52.920006 54.567513,54.974533 55.271069,56.951508 
	C51.817150,58.155216 49.024837,59.944397 48.578480,64.794556 
z"/>
<path fill="#FFFFFF" opacity="1.000000" stroke="none" 
	d="
M112.470459,92.000000 
	C112.000000,62.225327 112.000000,32.450657 112.000000,2.337319 
	C81.733582,2.337319 51.579758,2.337319 20.998695,2.337319 
	C20.998695,31.930431 20.998695,61.496559 20.999348,91.531342 
	C14.341817,92.000000 7.683634,92.000000 1.019088,92.000000 
	C1.012726,61.713757 1.012726,31.427505 1.012726,1.070627 
	C43.565189,1.070627 86.130524,1.070627 128.847931,1.070627 
	C128.847931,31.332767 128.847931,61.666286 128.847931,92.000000 
	C123.594025,92.000000 118.267464,92.000000 112.470459,92.000000 
z"/>
<path fill="#04F4F4" opacity="1.000000" stroke="none" 
	d="
M59.959579,42.478790 
	C67.653290,34.526794 75.347000,26.574799 83.859352,17.776672 
	C85.324142,19.831377 86.185555,21.039717 87.451157,22.577526 
	C88.226173,22.537952 88.597000,22.168907 88.967827,21.799862 
	C91.546852,18.683640 94.125870,15.567414 96.923492,12.187066 
	C96.316895,11.114103 95.148300,9.047044 93.979706,6.979985 
	C94.429337,6.772101 94.878967,6.564218 95.328598,6.356335 
	C104.264503,13.528019 107.937653,18.215763 106.496872,21.131224 
	C104.765221,19.584509 103.099052,18.096285 101.996758,17.111710 
	C98.642006,20.364544 95.438896,23.470339 91.914795,26.887367 
	C92.302177,27.362167 93.514420,28.847992 95.048256,30.727978 
	C89.521942,34.751225 86.247070,41.512638 77.951462,42.970978 
	C71.390915,42.763794 65.675247,42.621292 59.959579,42.478790 
z"/>
<path fill="#F60101" opacity="1.000000" stroke="none" 
	d="
M59.673553,42.686638 
	C65.675247,42.621292 71.390915,42.763794 77.561096,43.042030 
	C77.647110,44.889225 77.749420,46.944263 76.806404,48.236443 
	C75.142746,50.516102 72.865768,52.355747 70.801277,54.333397 
	C68.207802,56.817780 65.569809,59.255684 62.677261,61.970600 
	C61.061642,60.589035 59.364471,59.137733 57.330238,57.857178 
	C56.993172,58.027920 57.052166,58.025311 57.138634,57.664085 
	C56.808819,57.184361 56.392536,57.065861 55.972916,56.977570 
	C55.969574,57.007782 56.026463,57.029057 56.026463,57.029057 
	C54.567513,54.974533 53.108559,52.920006 51.361919,50.460354 
	C53.898197,48.069366 56.642864,45.481930 59.673553,42.686638 
z"/>
<path fill="#CDCDCD" opacity="1.000000" stroke="none" 
	d="
M48.895058,64.083855 
	C44.396908,68.962906 39.898766,73.841957 35.400620,78.721008 
	C34.894962,78.191971 34.389309,77.662933 33.883652,77.133896 
	C38.534500,72.751022 41.983402,67.057732 48.779060,64.415237 
	C48.979645,64.035919 48.895058,64.083855 48.895058,64.083855 
z"/>
<path fill="#D70000" opacity="1.000000" stroke="none" 
	d="
M56.988434,57.998856 
	C55.241497,60.896145 53.971226,64.396851 49.226227,64.077789 
	C48.895058,64.083855 48.979645,64.035919 48.953964,64.077515 
	C49.024837,59.944397 51.817150,58.155216 55.648766,56.990280 
	C56.026463,57.029057 55.969574,57.007782 56.016914,57.264744 
	C56.393562,57.689571 56.722866,57.857441 57.052166,58.025311 
	C57.052166,58.025311 56.993172,58.027920 56.988434,57.998856 
z"/>
<path fill="#00F3F3" opacity="1.000000" stroke="none" 
	d="
M88.816330,22.093655 
	C88.597000,22.168907 88.226173,22.537952 87.660538,22.897711 
	C87.865425,22.721430 88.265129,22.554440 88.816330,22.093655 
z"/>
<path fill="#010101" opacity="1.000000" stroke="none" 
	d="
M57.138634,57.664085 
	C56.722866,57.857441 56.393562,57.689571 56.020256,57.234535 
	C56.392536,57.065861 56.808819,57.184361 57.138634,57.664085 
z"/>
</svg>