<svg version="1.1" id="Layer_1" xmlns="http://www.w3.org/2000/svg" xmlns:xlink="http://www.w3.org/1999/xlink" x="0px" y="0px"
	 width="100%" viewBox="0 0 225 225" enable-background="new 0 0 225 225" xml:space="preserve">
<path fill="#FEFEFE" opacity="1.000000" stroke="none" 
	d="
M1.000000,101.000000 
	C1.000000,67.698448 1.000000,34.396904 1.000000,1.047678 
	C75.896675,1.047678 150.793381,1.047678 226.000000,1.047678 
	C226.000000,45.353748 226.000000,89.708214 225.672211,134.440552 
	C215.687103,126.972916 206.594345,118.265480 196.240250,111.483803 
	C180.692261,101.300262 162.981094,96.415672 144.461670,94.964493 
	C117.675461,92.865540 92.156311,98.082626 67.688629,108.904724 
	C55.045467,114.496826 43.396130,114.387703 33.225109,103.541306 
	C30.284912,100.405876 26.550924,98.028885 23.404167,95.066933 
	C21.907957,93.658607 21.017925,91.626617 19.697021,90.004395 
	C18.846607,88.959984 17.832794,87.822487 16.648455,87.381775 
	C16.138590,87.192032 14.328739,88.650352 14.317249,89.378990 
	C14.297729,90.616913 14.952079,92.126167 15.814075,93.075897 
	C22.483286,100.423912 29.270313,107.664993 36.020847,114.939186 
	C35.886425,115.495018 35.751999,116.050850 35.617573,116.606682 
	C33.887520,116.687698 31.720413,117.482155 30.498522,116.733635 
	C22.711151,111.963173 14.978073,107.066521 7.572118,101.732422 
	C5.147305,99.985954 3.385846,99.581505 1.000000,101.000000 
z"/>
<path fill="#FEFEFE" opacity="1.000000" stroke="none" 
	d="
M226.000000,138.000000 
	C226.000000,167.303802 226.000000,196.607620 226.000000,225.911423 
	C225.863022,225.940948 225.726059,225.996353 225.589081,225.996368 
	C150.831070,226.000061 76.073044,226.000000 1.000000,226.000000 
	C1.000000,185.646317 1.000000,145.291824 1.302276,104.636993 
	C10.913524,110.771599 20.222496,117.206528 30.251413,124.139130 
	C26.919214,126.060013 24.982704,127.176331 23.046192,128.292648 
	C23.118443,128.563171 23.190691,128.833694 23.262941,129.104218 
	C24.785484,129.104218 26.308027,129.104218 28.717518,129.104218 
	C25.909788,131.158615 23.958820,132.586121 22.007853,134.013626 
	C22.253761,134.455658 22.499668,134.897690 22.745577,135.339737 
	C24.192532,134.865356 25.609810,134.208313 27.094643,133.967072 
	C28.634478,133.716873 30.321112,133.541092 31.801037,133.907822 
	C36.122459,134.978714 40.308979,136.657379 44.662666,137.523056 
	C59.037292,140.381271 73.306450,140.956635 87.293800,135.210541 
	C90.424950,133.924240 94.048866,132.904297 97.352318,133.130249 
	C112.582054,134.171829 127.855942,129.998291 143.039856,133.601089 
	C143.661789,133.748657 144.373627,133.633133 145.024612,133.525452 
	C157.271851,131.499619 169.508041,131.890656 181.755219,133.567688 
	C186.023315,134.152130 190.368362,134.260422 194.596191,135.034393 
	C201.914764,136.374191 209.121613,138.398529 216.473618,139.445709 
	C219.518661,139.879425 222.816910,138.535492 226.000000,138.000000 
z"/>
<path fill="#040404" opacity="1.000000" stroke="none" 
	d="
M226.000000,137.625000 
	C222.816910,138.535492 219.518661,139.879425 216.473618,139.445709 
	C209.121613,138.398529 201.914764,136.374191 194.596191,135.034393 
	C190.368362,134.260422 186.023315,134.152130 181.755219,133.567688 
	C169.508041,131.890656 157.271851,131.499619 145.024612,133.525452 
	C144.373627,133.633133 143.661789,133.748657 143.039856,133.601089 
	C127.855942,129.998291 112.582054,134.171829 97.352318,133.130249 
	C94.048866,132.904297 90.424950,133.924240 87.293800,135.210541 
	C73.306450,140.956635 59.037292,140.381271 44.662666,137.523056 
	C40.308979,136.657379 36.122459,134.978714 31.801037,133.907822 
	C30.321112,133.541092 28.634478,133.716873 27.094643,133.967072 
	C25.609810,134.208313 24.192532,134.865356 22.745577,135.339737 
	C22.499668,134.897690 22.253761,134.455658 22.007853,134.013626 
	C23.958820,132.586121 25.909788,131.158615 28.717518,129.104218 
	C26.308027,129.104218 24.785484,129.104218 23.262941,129.104218 
	C23.190691,128.833694 23.118443,128.563171 23.046192,128.292648 
	C24.982704,127.176331 26.919214,126.060013 30.251413,124.139130 
	C20.222496,117.206528 10.913524,110.771599 1.302276,104.168335 
	C1.000000,103.250000 1.000000,102.500000 1.000000,101.375000 
	C3.385846,99.581505 5.147305,99.985954 7.572118,101.732422 
	C14.978073,107.066521 22.711151,111.963173 30.498522,116.733635 
	C31.720413,117.482155 33.887520,116.687698 35.617573,116.606682 
	C35.751999,116.050850 35.886425,115.495018 36.020847,114.939186 
	C29.270313,107.664993 22.483286,100.423912 15.814075,93.075897 
	C14.952079,92.126167 14.297729,90.616913 14.317249,89.378990 
	C14.328739,88.650352 16.138590,87.192032 16.648455,87.381775 
	C17.832794,87.822487 18.846607,88.959984 19.697021,90.004395 
	C21.017925,91.626617 21.907957,93.658607 23.404167,95.066933 
	C26.550924,98.028885 30.284912,100.405876 33.225109,103.541306 
	C43.396130,114.387703 55.045467,114.496826 67.688629,108.904724 
	C92.156311,98.082626 117.675461,92.865540 144.461670,94.964493 
	C162.981094,96.415672 180.692261,101.300262 196.240250,111.483803 
	C206.594345,118.265480 215.687103,126.972916 225.672211,134.909210 
	C226.000000,135.750000 226.000000,136.500000 226.000000,137.625000 
z"/>
</svg>